<svg xmlns="http://www.w3.org/2000/svg" xmlns:xlink="http://www.w3.org/1999/xlink" width="1000" viewBox="0 0 1000 1000" height="1000" version="1.0"><defs><g id="a"><path d="M 19.8125 -18.328125 L 12.4375 -18.328125 L 12.4375 0 L 8.09375 0 L 8.09375 -18.328125 L 0.71875 -18.328125 L 0.71875 -21.734375 L 19.8125 -21.734375 Z M 19.8125 -18.328125"/></g><g id="b"><path d="M 18.484375 -3.625 L 18.484375 0 L 2.796875 0 L 2.796875 -21.734375 L 7.15625 -21.734375 L 7.15625 -3.625 Z M 18.484375 -3.625"/></g><g id="c"><path d="M 13.078125 -21.609375 C 15.765625 -21.296875 17.925781 -20.265625 19.5625 -18.515625 C 21.195312 -16.773438 22.015625 -14.320312 22.015625 -11.15625 C 22.015625 -7.957031 21.175781 -5.394531 19.5 -3.46875 C 17.820312 -1.550781 15.660156 -0.4375 13.015625 -0.125 C 12.273438 -0.0390625 11.347656 0 10.234375 0 L 2.796875 0 L 2.796875 -21.734375 L 10.296875 -21.734375 C 11.410156 -21.734375 12.335938 -21.691406 13.078125 -21.609375 Z M 12.03125 -3.53125 C 13.6875 -3.738281 15 -4.503906 15.96875 -5.828125 C 16.9375 -7.148438 17.421875 -8.90625 17.421875 -11.09375 C 17.421875 -13.1875 16.945312 -14.84375 16 -16.0625 C 15.050781 -17.28125 13.757812 -17.992188 12.125 -18.203125 C 11.476562 -18.285156 10.703125 -18.328125 9.796875 -18.328125 L 7.15625 -18.328125 L 7.15625 -3.4375 L 9.734375 -3.4375 C 10.804688 -3.4375 11.570312 -3.46875 12.03125 -3.53125 Z M 12.03125 -3.53125"/></g><g id="d"><path d="M 31.21875 -21.734375 L 25.453125 0 L 19.6875 0 L 15.96875 -18.078125 L 12.0625 0 L 6.265625 0 L 0.8125 -21.734375 L 5.515625 -21.734375 L 9.171875 -3.34375 L 13.015625 -21.421875 L 19.125 -21.421875 L 22.84375 -3.28125 L 26.75 -21.734375 Z M 31.21875 -21.734375"/></g><g id="e"><path d="M 10.515625 -17.171875 C 11.003906 -17.171875 11.414062 -17.128906 11.75 -17.046875 L 11.75 -13.546875 C 9.90625 -13.671875 8.539062 -13.273438 7.65625 -12.359375 C 6.769531 -11.453125 6.328125 -9.894531 6.328125 -7.6875 L 6.328125 0 L 1.984375 0 L 1.984375 -16.765625 L 6.328125 -16.765625 L 6.328125 -13.703125 L 7.65625 -16.03125 C 8.476562 -16.789062 9.429688 -17.171875 10.515625 -17.171875 Z M 10.515625 -17.171875"/></g><g id="f"><path d="M 2.421875 -22.34375 C 2.867188 -22.78125 3.445312 -23 4.15625 -23 C 4.875 -23 5.453125 -22.78125 5.890625 -22.34375 C 6.328125 -21.914062 6.546875 -21.367188 6.546875 -20.703125 C 6.546875 -20.003906 6.328125 -19.441406 5.890625 -19.015625 C 5.453125 -18.597656 4.875 -18.390625 4.15625 -18.390625 C 3.445312 -18.390625 2.867188 -18.597656 2.421875 -19.015625 C 1.984375 -19.441406 1.765625 -20.003906 1.765625 -20.703125 C 1.765625 -21.367188 1.984375 -21.914062 2.421875 -22.34375 Z M 6.328125 0 L 1.984375 0 L 1.984375 -16.765625 L 6.328125 -16.765625 Z M 6.328125 0"/></g><g id="g"><path d="M 7.1875 -13.765625 L 7.1875 -6.015625 C 7.1875 -5.328125 7.195312 -4.832031 7.21875 -4.53125 C 7.28125 -3.71875 7.519531 -3.1875 7.9375 -2.9375 C 8.351562 -2.695312 9.160156 -2.617188 10.359375 -2.703125 L 10.359375 0.125 C 9.460938 0.269531 8.507812 0.34375 7.5 0.34375 C 5.90625 0.34375 4.765625 0.078125 4.078125 -0.453125 C 3.398438 -0.992188 3.003906 -1.875 2.890625 -3.09375 C 2.847656 -3.59375 2.828125 -4.398438 2.828125 -5.515625 L 2.828125 -13.765625 L 0.375 -13.765625 L 0.375 -16.625 L 2.828125 -16.625 L 2.828125 -20.765625 L 7.1875 -20.765625 L 7.1875 -16.625 L 10.640625 -16.625 L 10.640625 -13.765625 Z M 7.1875 -13.765625"/></g><g id="h"><path d="M 17.203125 -8.71875 C 17.203125 -8.113281 17.179688 -7.625 17.140625 -7.25 L 5.234375 -7.25 C 5.484375 -4.15625 6.773438 -2.609375 9.109375 -2.609375 C 10.046875 -2.609375 10.820312 -2.859375 11.4375 -3.359375 C 12.0625 -3.867188 12.445312 -4.566406 12.59375 -5.453125 L 16.953125 -5.453125 C 16.523438 -3.535156 15.601562 -2.070312 14.1875 -1.0625 C 12.769531 -0.0625 11.046875 0.4375 9.015625 0.4375 C 6.597656 0.4375 4.628906 -0.3125 3.109375 -1.8125 C 1.597656 -3.3125 0.84375 -5.476562 0.84375 -8.3125 C 0.84375 -10.914062 1.625 -13.046875 3.1875 -14.703125 C 4.757812 -16.367188 6.816406 -17.203125 9.359375 -17.203125 C 11.816406 -17.203125 13.738281 -16.390625 15.125 -14.765625 C 16.507812 -13.148438 17.203125 -11.132812 17.203125 -8.71875 Z M 9.171875 -14.140625 C 7.003906 -14.140625 5.734375 -12.785156 5.359375 -10.078125 L 12.71875 -10.078125 C 12.425781 -12.785156 11.242188 -14.140625 9.171875 -14.140625 Z M 9.171875 -14.140625"/></g></defs><g fill="#FFF"><use x="116.15" y="198.451" xmlns:xlink="http://www.w3.org/1999/xlink" xlink:href="#a" xlink:type="simple" xlink:actuate="onLoad" xlink:show="embed"/></g><g fill="#FFF"><use x="135.775" y="198.451" xmlns:xlink="http://www.w3.org/1999/xlink" xlink:href="#b" xlink:type="simple" xlink:actuate="onLoad" xlink:show="embed"/></g><g fill="#FFF"><use x="154.801" y="198.451" xmlns:xlink="http://www.w3.org/1999/xlink" xlink:href="#c" xlink:type="simple" xlink:actuate="onLoad" xlink:show="embed"/></g><g fill="#FFF"><use x="177.827" y="198.451" xmlns:xlink="http://www.w3.org/1999/xlink" xlink:href="#d" xlink:type="simple" xlink:actuate="onLoad" xlink:show="embed"/></g><g fill="#FFF"><use x="208.918" y="198.451" xmlns:xlink="http://www.w3.org/1999/xlink" xlink:href="#e" xlink:type="simple" xlink:actuate="onLoad" xlink:show="embed"/></g><g fill="#FFF"><use x="220.888" y="198.451" xmlns:xlink="http://www.w3.org/1999/xlink" xlink:href="#f" xlink:type="simple" xlink:actuate="onLoad" xlink:show="embed"/></g><g fill="#FFF"><use x="229.267" y="198.451" xmlns:xlink="http://www.w3.org/1999/xlink" xlink:href="#g" xlink:type="simple" xlink:actuate="onLoad" xlink:show="embed"/></g><g fill="#FFF"><use x="240.639" y="198.451" xmlns:xlink="http://www.w3.org/1999/xlink" xlink:href="#h" xlink:type="simple" xlink:actuate="onLoad" xlink:show="embed"/></g></svg>