<svg xmlns="http://www.w3.org/2000/svg" xmlns:xlink="http://www.w3.org/1999/xlink" width="375" viewBox="0 0 375 375" height="375" version="1.0"><defs><clipPath id="c"><path d="M 254 140 L 257.648438 140 L 257.648438 155 L 254 155 Z M 254 140"/></clipPath></defs><path d="M-37.5 -37.5H412.5V412.5H-37.5z"/><g fill="#FFF"><use x="181.134" y="231.414" xmlns:xlink="http://www.w3.org/1999/xlink" xlink:href="#a" xlink:type="simple" xlink:actuate="onLoad" xlink:show="embed"/></g><g fill="#FFF"><use x="181.126" y="260.121" xmlns:xlink="http://www.w3.org/1999/xlink" xlink:href="#b" xlink:type="simple" xlink:actuate="onLoad" xlink:show="embed"/></g><path fill="#1F90A3" d="M 187.46875 189.242188 C 187.46875 191.742188 185.445312 193.765625 182.953125 193.765625 L 179.503906 193.765625 C 177.007812 193.765625 174.988281 191.742188 174.988281 189.242188 L 174.988281 104.914062 C 174.988281 102.417969 177.007812 100.390625 179.503906 100.390625 L 182.953125 100.390625 C 185.445312 100.390625 187.46875 102.417969 187.46875 104.914062 L 187.46875 189.242188"/><path fill="#1F90A3" d="M 202.742188 177.804688 C 202.742188 180.300781 200.71875 182.328125 198.226562 182.328125 L 197.960938 182.328125 C 195.46875 182.328125 193.441406 180.300781 193.441406 177.804688 L 193.441406 116.355469 C 193.441406 113.855469 195.46875 111.828125 197.960938 111.828125 L 198.226562 111.828125 C 200.71875 111.828125 202.742188 113.855469 202.742188 116.355469 L 202.742188 177.804688"/><path fill="#1F90A3" d="M 216.019531 165.96875 C 216.019531 168.316406 214.117188 170.222656 211.773438 170.222656 C 209.421875 170.222656 207.519531 168.316406 207.519531 165.96875 L 207.519531 128.191406 C 207.519531 125.839844 209.421875 123.933594 211.773438 123.933594 C 214.117188 123.933594 216.019531 125.839844 216.019531 128.191406 L 216.019531 165.96875"/><path fill="#1F90A3" d="M 228.503906 176.34375 C 228.503906 178.398438 226.835938 180.066406 224.785156 180.066406 C 222.730469 180.066406 221.066406 178.398438 221.066406 176.34375 L 221.066406 117.8125 C 221.066406 115.757812 222.730469 114.09375 224.785156 114.09375 C 226.835938 114.09375 228.503906 115.757812 228.503906 117.816406 L 228.503906 176.34375"/><path fill="#1F90A3" d="M 240.191406 159.847656 C 240.191406 161.757812 238.644531 163.304688 236.738281 163.304688 C 234.832031 163.304688 233.285156 161.757812 233.285156 159.847656 L 233.285156 134.308594 C 233.285156 132.398438 234.832031 130.851562 236.738281 130.851562 C 238.644531 130.851562 240.191406 132.398438 240.191406 134.308594 L 240.191406 159.847656"/><path fill="#1F90A3" d="M 250.550781 155.59375 C 250.550781 157.207031 249.242188 158.519531 247.625 158.519531 C 246.015625 158.519531 244.707031 157.207031 244.707031 155.59375 L 244.707031 138.566406 C 244.707031 136.953125 246.015625 135.640625 247.625 135.640625 C 249.242188 135.640625 250.550781 136.953125 250.550781 138.566406 L 250.550781 155.59375"/><g clip-path="url(#c)"><path fill="#1F90A3" d="M 258.785156 151.734375 C 258.785156 153.058594 257.714844 154.128906 256.390625 154.128906 C 255.074219 154.128906 254 153.058594 254 151.734375 L 254 142.425781 C 254 141.097656 255.074219 140.03125 256.390625 140.03125 C 257.714844 140.03125 258.785156 141.097656 258.785156 142.425781 L 258.785156 151.734375"/></g><path fill="#1F90A3" d="M 159.710938 177.804688 C 159.710938 180.300781 161.738281 182.328125 164.230469 182.328125 L 164.492188 182.328125 C 166.988281 182.328125 169.007812 180.300781 169.007812 177.804688 L 169.007812 116.355469 C 169.007812 113.855469 166.988281 111.828125 164.492188 111.828125 L 164.230469 111.828125 C 161.738281 111.828125 159.710938 113.855469 159.710938 116.355469 L 159.710938 177.804688"/><path fill="#1F90A3" d="M 146.429688 165.96875 C 146.429688 168.316406 148.332031 170.222656 150.683594 170.222656 C 153.027344 170.222656 154.933594 168.316406 154.933594 165.96875 L 154.933594 128.191406 C 154.933594 125.839844 153.027344 123.933594 150.683594 123.933594 C 148.332031 123.933594 146.429688 125.839844 146.429688 128.191406 L 146.429688 165.96875"/><path fill="#1F90A3" d="M 133.949219 176.34375 C 133.949219 178.398438 135.613281 180.066406 137.667969 180.066406 C 139.722656 180.066406 141.386719 178.398438 141.386719 176.34375 L 141.386719 117.8125 C 141.386719 115.757812 139.722656 114.09375 137.667969 114.09375 C 135.613281 114.09375 133.949219 115.757812 133.949219 117.816406 L 133.949219 176.34375"/><path fill="#1F90A3" d="M 122.261719 159.847656 C 122.261719 161.757812 123.808594 163.304688 125.714844 163.304688 C 127.625 163.304688 129.167969 161.757812 129.167969 159.847656 L 129.167969 134.308594 C 129.167969 132.398438 127.625 130.851562 125.714844 130.851562 C 123.808594 130.851562 122.261719 132.398438 122.261719 134.308594 L 122.261719 159.847656"/><path fill="#1F90A3" d="M 111.902344 155.59375 C 111.902344 157.207031 113.214844 158.519531 114.828125 158.519531 C 116.441406 158.519531 117.75 157.207031 117.75 155.59375 L 117.75 138.566406 C 117.75 136.953125 116.441406 135.640625 114.828125 135.640625 C 113.214844 135.640625 111.902344 136.953125 111.902344 138.566406 L 111.902344 155.59375"/><path fill="#1F90A3" d="M 103.671875 151.734375 C 103.671875 153.058594 104.742188 154.128906 106.0625 154.128906 C 107.382812 154.128906 108.453125 153.058594 108.453125 151.734375 L 108.453125 142.425781 C 108.453125 141.097656 107.382812 140.03125 106.0625 140.03125 C 104.742188 140.03125 103.671875 141.097656 103.671875 142.425781 L 103.671875 151.734375"/></svg>